<svg width="1600" height="513" viewBox="0 0 1600 513" fill="none" xmlns="http://www.w3.org/2000/svg">
<g opacity="0.4">
<path d="M1640.3 367.406C1640.3 367.406 1511.84 228.176 1384.06 211.076C1256.27 193.976 1248.94 328.001 1129.16 299.007C1009.38 270.013 1052.17 125.503 904.933 95.0999C757.699 64.6966 698.103 209.996 540.228 177.396C382.353 144.795 401.084 0.345264 273.43 -35.3025C145.775 -70.9503 150.532 67.2277 29.6139 34.8039C-91.3044 2.37998 -210.255 -165 -210.255 -165" stroke="#7C4BB0" stroke-opacity="0.37" stroke-width="4"/>
<path d="M1625.77 437.785C1625.77 437.785 1497.31 298.555 1369.53 281.455C1241.74 264.355 1234.41 398.38 1114.63 369.386C994.844 340.392 1037.63 195.882 890.399 165.479C743.166 135.075 683.57 280.375 525.695 247.774C367.819 215.174 386.551 70.7242 258.896 35.0764C131.242 -0.571382 135.999 137.607 15.0802 105.183C-105.838 72.7589 -224.789 -94.6209 -224.789 -94.6209" stroke="#7C4BB0" stroke-opacity="0.37" stroke-width="4"/>
<path d="M1632.23 406.5C1632.23 406.5 1503.77 267.27 1375.99 250.17C1248.2 233.07 1240.87 367.095 1121.09 338.101C1001.3 309.107 1044.09 164.597 896.86 134.194C749.626 103.79 690.03 249.09 532.155 216.489C374.28 183.888 393.011 39.439 265.357 3.79124C137.702 -31.8565 142.459 106.321 21.5407 73.8976C-99.3776 41.4737 -218.328 -125.906 -218.328 -125.906" stroke="#4465DD" stroke-opacity="0.37" stroke-width="4"/>
<path d="M1617.7 476.879C1617.7 476.879 1489.24 337.649 1361.45 320.549C1233.67 303.449 1226.34 437.474 1106.55 408.48C986.772 379.486 1029.56 234.976 882.327 204.573C735.093 174.169 675.497 319.469 517.622 286.868C359.747 254.267 378.479 109.818 250.824 74.1701C123.169 38.5224 127.926 176.7 7.00797 144.277C-113.91 111.853 -232.861 -55.5271 -232.861 -55.5271" stroke="#4465DD" stroke-opacity="0.37" stroke-width="4"/>
</g>
</svg>
